<svg width="23" height="24" viewBox="0 0 23 24" fill="none" xmlns="http://www.w3.org/2000/svg">
<path opacity="0.1" fill-rule="evenodd" clip-rule="evenodd" d="M0.262817 11.9059C0.262817 5.75505 5.24907 0.768799 11.3999 0.768799C17.5508 0.768799 22.537 5.75505 22.537 11.9059C22.537 18.0568 17.5508 23.043 11.3999 23.043C5.24907 23.043 0.262817 18.0568 0.262817 11.9059Z" fill="white"/>
<path fill-rule="evenodd" clip-rule="evenodd" d="M17.3397 11.8977C17.3397 12.2994 17.2988 12.7005 17.2185 13.0915C17.1402 13.4733 17.0242 13.848 16.8722 14.2063C16.7237 14.5582 16.5395 14.8973 16.3243 15.2136C16.1123 15.5279 15.8681 15.8227 15.5998 16.0915C15.3309 16.3591 15.0351 16.6026 14.7209 16.8155C14.4036 17.0292 14.064 17.2132 13.7119 17.3623C13.3531 17.5135 12.9775 17.6294 12.5961 17.7076C12.2045 17.7881 11.8019 17.8292 11.3997 17.8292C10.9971 17.8292 10.5945 17.7881 10.2035 17.7076C9.82155 17.6294 9.44594 17.5135 9.08745 17.3623C8.73534 17.2132 8.39539 17.0292 8.07809 16.8155C7.76398 16.6026 7.46813 16.3591 7.19984 16.0915C6.93127 15.8227 6.68704 15.5279 6.47473 15.2136C6.26068 14.8973 6.07619 14.5582 5.92712 14.2063C5.77512 13.848 5.65883 13.4732 5.58022 13.0915C5.50076 12.7005 5.46014 12.2994 5.46014 11.8977C5.46014 11.4957 5.50074 11.0937 5.58025 10.7035C5.65885 10.3218 5.77514 9.94644 5.92715 9.58876C6.07622 9.23658 6.2607 8.89715 6.47475 8.58086C6.68706 8.26634 6.93129 7.97206 7.19986 7.70299C7.46816 7.43537 7.764 7.19239 8.07812 6.97981C8.39542 6.76518 8.73536 6.5813 9.08747 6.43183C9.44597 6.28033 9.82155 6.16421 10.2036 6.0866C10.5945 6.00667 10.9971 5.96611 11.3997 5.96611C11.802 5.96611 12.2045 6.00667 12.5961 6.0866C12.9775 6.16423 13.3531 6.28035 13.7119 6.43183C14.064 6.58127 14.4037 6.76518 14.721 6.97981C15.0351 7.19239 15.331 7.43537 15.5998 7.70299C15.8681 7.97206 16.1123 8.26634 16.3243 8.58086C16.5395 8.89715 16.7237 9.2366 16.8722 9.58876C17.0242 9.94644 17.1402 10.3218 17.2185 10.7035C17.2988 11.0937 17.3397 11.4957 17.3397 11.8977ZM9.23534 7.31605C7.82078 7.98308 6.76502 9.28465 6.43581 10.8533C6.56954 10.8544 8.68338 10.8811 11.1189 10.2349C10.2409 8.67729 9.30292 7.40615 9.23534 7.31605ZM11.5391 11.0149C8.92731 11.7957 6.42103 11.7395 6.33112 11.7361C6.32966 11.7905 6.32705 11.8432 6.32705 11.8977C6.32705 13.1989 6.81868 14.3852 7.62674 15.2822C7.625 15.2796 9.01317 12.8204 11.7506 11.9365C11.8167 11.9145 11.884 11.8948 11.9507 11.8757C11.8234 11.5878 11.6844 11.2993 11.5391 11.0149ZM14.7497 8.09603C13.8566 7.30967 12.684 6.83269 11.3997 6.83269C10.9875 6.83269 10.5875 6.88251 10.2044 6.97461C10.2804 7.07657 11.2332 8.33874 12.1007 9.92935C14.0147 9.21283 14.7372 8.11455 14.7497 8.09603ZM12.2965 12.715C12.2852 12.7187 12.2739 12.722 12.2629 12.726C9.26994 13.7679 8.29256 15.8675 8.28198 15.8904C9.14314 16.5592 10.2233 16.9626 11.3997 16.9626C12.1022 16.9626 12.7713 16.8198 13.3801 16.5612C13.305 16.1187 13.0103 14.5674 12.2965 12.715ZM14.2343 16.0984C15.3732 15.3309 16.1822 14.1122 16.4078 12.7005C16.3034 12.6669 14.8842 12.2182 13.2469 12.4804C13.9123 14.3062 14.1826 15.7931 14.2343 16.0984ZM12.4911 10.6841C12.6089 10.9257 12.7229 11.1715 12.8281 11.4186C12.8656 11.5072 12.9021 11.5941 12.9378 11.681C14.6804 11.462 16.3971 11.8305 16.4705 11.8455C16.4589 10.6447 16.0288 9.54269 15.317 8.67991C15.3075 8.6935 14.4939 9.86736 12.4911 10.6841Z" fill="white"/>
</svg>
