<svg width="46" height="40" viewBox="0 0 46 40" fill="none" xmlns="http://www.w3.org/2000/svg">
<path d="M45.7922 26.8835C45.7922 33.8032 40.1827 39.4127 33.263 39.4127L14.4691 39.4127C12.547 39.4127 10.9888 37.8545 10.9888 35.9324L10.9888 12.266C10.9888 8.42172 14.1052 5.30531 17.9495 5.30531L42.3119 5.30532C44.234 5.30532 45.7922 6.86352 45.7922 8.78566L45.7922 26.8835Z" fill="#E8F5E9"/>
<path d="M19.2833 13.6657C19.0661 13.6657 18.8896 13.4895 18.8896 13.272V12.6029C18.8896 12.3857 19.0659 12.2091 19.2833 12.2091C19.5005 12.2091 19.6771 12.3854 19.6771 12.6029V13.272C19.6771 13.4895 19.5005 13.6657 19.2833 13.6657Z" fill="#103E13"/>
<path d="M17.6279 13.6657C17.4108 13.6657 17.2342 13.4895 17.2342 13.272V12.6029C17.2342 12.3857 17.4105 12.2091 17.6279 12.2091C17.8451 12.2091 18.0217 12.3854 18.0217 12.6029V13.272C18.0214 13.4895 17.8454 13.6657 17.6279 13.6657Z" fill="#103E13"/>
<path d="M15.9727 13.6657C15.7555 13.6657 15.5789 13.4895 15.5789 13.272V12.6029C15.5789 12.3857 15.7552 12.2091 15.9727 12.2091C16.1899 12.2091 16.3664 12.3854 16.3664 12.6029V13.272C16.3664 13.4895 16.1901 13.6657 15.9727 13.6657Z" fill="#103E13"/>
<path d="M19.2833 16.4021C19.0661 16.4021 18.8896 16.2258 18.8896 16.0084V15.3395C18.8896 15.1223 19.0659 14.9457 19.2833 14.9457C19.5005 14.9457 19.6771 15.122 19.6771 15.3395V16.0084C19.6771 16.2258 19.5005 16.4021 19.2833 16.4021Z" fill="#103E13"/>
<path d="M17.6279 16.4021C17.4108 16.4021 17.2342 16.2258 17.2342 16.0084V15.3395C17.2342 15.1223 17.4105 14.9457 17.6279 14.9457C17.8451 14.9457 18.0217 15.122 18.0217 15.3395V16.0084C18.0214 16.2258 17.8454 16.4021 17.6279 16.4021Z" fill="#103E13"/>
<path d="M15.9727 16.4021C15.7555 16.4021 15.5789 16.2258 15.5789 16.0084V15.3395C15.5789 15.1223 15.7552 14.9457 15.9727 14.9457C16.1899 14.9457 16.3664 15.122 16.3664 15.3395V16.0084C16.3664 16.2258 16.1901 16.4021 15.9727 16.4021Z" fill="#103E13"/>
<path d="M19.2833 19.1386C19.0661 19.1386 18.8896 18.9623 18.8896 18.7448V18.0757C18.8896 17.8585 19.0659 17.6819 19.2833 17.6819C19.5005 17.6819 19.6771 17.8582 19.6771 18.0757V18.7448C19.6771 18.9623 19.5005 19.1386 19.2833 19.1386Z" fill="#103E13"/>
<path d="M17.6279 19.1386C17.4108 19.1386 17.2342 18.9623 17.2342 18.7448V18.0757C17.2342 17.8585 17.4105 17.6819 17.6279 17.6819C17.8451 17.6819 18.0217 17.8582 18.0217 18.0757V18.7448C18.0214 18.9623 17.8454 19.1386 17.6279 19.1386Z" fill="#103E13"/>
<path d="M15.9727 19.1386C15.7555 19.1386 15.5789 18.9623 15.5789 18.7448V18.0757C15.5789 17.8585 15.7552 17.6819 15.9727 17.6819C16.1899 17.6819 16.3664 17.8582 16.3664 18.0757V18.7448C16.3664 18.9623 16.1901 19.1386 15.9727 19.1386Z" fill="#103E13"/>
<path d="M19.2833 21.8744C19.0661 21.8744 18.8896 21.6981 18.8896 21.4807V20.8115C18.8896 20.5943 19.0659 20.4178 19.2833 20.4178C19.5005 20.4178 19.6771 20.5941 19.6771 20.8115V21.4807C19.6771 21.6981 19.5005 21.8744 19.2833 21.8744Z" fill="#103E13"/>
<path d="M17.6279 21.8744C17.4108 21.8744 17.2342 21.6981 17.2342 21.4807V20.8115C17.2342 20.5943 17.4105 20.4178 17.6279 20.4178C17.8451 20.4178 18.0217 20.5941 18.0217 20.8115V21.4807C18.0214 21.6981 17.8454 21.8744 17.6279 21.8744Z" fill="#103E13"/>
<path d="M15.9727 21.8744C15.7555 21.8744 15.5789 21.6981 15.5789 21.4807V20.8115C15.5789 20.5943 15.7552 20.4178 15.9727 20.4178C16.1899 20.4178 16.3664 20.5941 16.3664 20.8115V21.4807C16.3664 21.6981 16.1901 21.8744 15.9727 21.8744Z" fill="#103E13"/>
<path d="M19.2833 24.6108C19.0661 24.6108 18.8896 24.4345 18.8896 24.217V23.5482C18.8896 23.331 19.0659 23.1544 19.2833 23.1544C19.5005 23.1544 19.6771 23.3307 19.6771 23.5482V24.217C19.6771 24.4342 19.5005 24.6108 19.2833 24.6108Z" fill="#103E13"/>
<path d="M17.6279 24.6108C17.4108 24.6108 17.2342 24.4345 17.2342 24.217V23.5482C17.2342 23.331 17.4105 23.1544 17.6279 23.1544C17.8451 23.1544 18.0217 23.3307 18.0217 23.5482V24.217C18.0214 24.4342 17.8454 24.6108 17.6279 24.6108Z" fill="#103E13"/>
<path d="M15.9727 24.6108C15.7555 24.6108 15.5789 24.4345 15.5789 24.217L15.5792 23.5482C15.5792 23.331 15.7555 23.1544 15.9729 23.1544C16.1901 23.1544 16.3667 23.3307 16.3667 23.5482V24.217C16.3664 24.4342 16.1901 24.6108 15.9727 24.6108Z" fill="#103E13"/>
<path d="M4.72445 27.334C4.72445 27.5512 4.90073 27.7277 5.1182 27.7277H29.0962C29.3134 27.7277 29.49 27.5514 29.49 27.334C29.49 27.1168 29.3137 26.9402 29.0962 26.9402H28.3684V15.6352C28.3684 15.418 28.1921 15.2414 27.9746 15.2414L21.5459 15.2417V7.09132C21.5459 6.95348 21.474 6.82608 21.3564 6.75468C21.2392 6.68302 21.0926 6.67863 20.9707 6.74205L13.6617 10.5475C13.5313 10.6153 13.45 10.7498 13.45 10.8967V18.0159H6.3765C6.15932 18.0159 5.98276 18.1922 5.98276 18.4097V26.9403H5.11732C4.90013 26.94 4.72412 27.1163 4.72412 27.3338L4.72445 27.334ZM21.546 21.2051H27.5813V26.9406L21.546 26.9403V21.2051ZM21.546 18.469H27.5813V20.4179L21.546 20.4177V18.469ZM21.546 16.0288H27.5813V17.682H21.546V16.0288ZM14.2371 11.1358L20.7583 7.74035V26.9399H14.2371V11.1358ZM8.71669 23.7954C8.71669 22.9783 9.36414 22.3132 10.1601 22.3132C10.9561 22.3132 11.6039 22.978 11.6039 23.7954V26.9404H8.71669V23.7954ZM6.77023 18.8033H13.4499V26.9403H12.3913V23.7953C12.3913 22.544 11.3908 21.5259 10.1601 21.5259C8.93003 21.5259 7.92949 22.5437 7.92949 23.7953V26.9403H6.77023V18.8033Z" fill="#103E13"/>
</svg>
