<svg width="24" height="24" viewBox="0 0 24 24" fill="none" xmlns="http://www.w3.org/2000/svg">
<path opacity="0.1" fill-rule="evenodd" clip-rule="evenodd" d="M0.85144 11.9059C0.85144 5.75505 5.8377 0.768799 11.9886 0.768799C18.1394 0.768799 23.1257 5.75505 23.1257 11.9059C23.1257 18.0568 18.1394 23.043 11.9886 23.043C5.8377 23.043 0.85144 18.0568 0.85144 11.9059Z" fill="white"/>
<path fill-rule="evenodd" clip-rule="evenodd" d="M11.9891 5.96611C10.376 5.96611 10.1735 5.97316 9.53992 6.002C8.90757 6.03095 8.47594 6.13106 8.09826 6.27795C7.7076 6.42967 7.3762 6.63261 7.04604 6.96289C6.71564 7.29305 6.51269 7.62444 6.36049 8.01499C6.21323 8.39279 6.11299 8.82454 6.08453 9.45664C6.05619 10.0902 6.04877 10.2928 6.04877 11.906C6.04877 13.5191 6.05594 13.721 6.08465 14.3545C6.11373 14.9869 6.21385 15.4185 6.36061 15.7962C6.51245 16.1869 6.71539 16.5183 7.04567 16.8484C7.37571 17.1788 7.7071 17.3823 8.09752 17.534C8.47545 17.6809 8.9072 17.781 9.53942 17.8099C10.173 17.8388 10.3753 17.8458 11.9884 17.8458C13.6017 17.8458 13.8035 17.8388 14.4371 17.8099C15.0694 17.781 15.5016 17.6809 15.8795 17.534C16.27 17.3823 16.6009 17.1788 16.931 16.8484C17.2614 16.5183 17.4643 16.1869 17.6165 15.7963C17.7625 15.4185 17.8628 14.9868 17.8925 14.3547C17.9209 13.7211 17.9284 13.5191 17.9284 11.906C17.9284 10.2928 17.9209 10.0903 17.8925 9.45676C17.8628 8.82442 17.7625 8.39279 17.6165 8.01511C17.4643 7.62444 17.2614 7.29305 16.931 6.96289C16.6005 6.63249 16.2701 6.42954 15.8791 6.27795C15.5004 6.13106 15.0686 6.03095 14.4362 6.002C13.8026 5.97316 13.6009 5.96611 11.9873 5.96611H11.9891ZM11.4562 7.0365C11.6144 7.03626 11.7908 7.0365 11.9891 7.0365C13.575 7.0365 13.763 7.0422 14.3893 7.07066C14.9684 7.09714 15.2827 7.19391 15.4921 7.27521C15.7693 7.38287 15.9669 7.51157 16.1747 7.71946C16.3826 7.92736 16.5113 8.12535 16.6192 8.40255C16.7005 8.61168 16.7974 8.926 16.8238 9.50513C16.8522 10.1313 16.8584 10.3194 16.8584 11.9046C16.8584 13.4898 16.8522 13.6779 16.8238 14.304C16.7973 14.8832 16.7005 15.1975 16.6192 15.4066C16.5115 15.6838 16.3826 15.8812 16.1747 16.089C15.9668 16.2969 15.7694 16.4256 15.4921 16.5332C15.283 16.6149 14.9684 16.7114 14.3893 16.7379C13.7631 16.7664 13.575 16.7725 11.9891 16.7725C10.403 16.7725 10.2151 16.7664 9.5889 16.7379C9.00976 16.7112 8.69544 16.6144 8.48594 16.5331C8.20875 16.4254 8.01075 16.2967 7.80286 16.0888C7.59496 15.8809 7.46626 15.6834 7.35836 15.4061C7.27705 15.197 7.18016 14.8827 7.1538 14.3035C7.12534 13.6774 7.11965 13.4893 7.11965 11.9031C7.11965 10.3169 7.12534 10.1298 7.1538 9.50365C7.18028 8.92451 7.27705 8.6102 7.35836 8.40082C7.46602 8.12362 7.59496 7.92563 7.80286 7.71773C8.01075 7.50984 8.20875 7.38114 8.48594 7.27323C8.69532 7.19156 9.00976 7.09504 9.5889 7.06843C10.1368 7.04368 10.3492 7.03626 11.4562 7.03502V7.0365ZM15.1597 8.02277C14.7662 8.02277 14.447 8.34167 14.447 8.73531C14.447 9.12882 14.7662 9.44809 15.1597 9.44809C15.5533 9.44809 15.8725 9.12882 15.8725 8.73531C15.8725 8.34179 15.5533 8.02277 15.1597 8.02277ZM11.9891 8.85559C10.3046 8.85559 8.93876 10.2214 8.93876 11.9059C8.93876 13.5905 10.3046 14.9557 11.9891 14.9557C13.6737 14.9557 15.039 13.5905 15.039 11.9059C15.039 10.2214 13.6737 8.85559 11.9891 8.85559ZM11.9891 9.926C13.0825 9.926 13.9691 10.8124 13.9691 11.9059C13.9691 12.9994 13.0825 13.8859 11.9891 13.8859C10.8956 13.8859 10.0092 12.9994 10.0092 11.9059C10.0092 10.8124 10.8956 9.926 11.9891 9.926Z" fill="white"/>
</svg>
