<svg width="134" height="22" viewBox="0 0 134 22" fill="none" xmlns="http://www.w3.org/2000/svg">
<path d="M17.0183 12.1638L12.3791 20.1093L7.73986 12.1638H17.0183ZM18.2612 11.4536H6.492L12.3791 21.5147L18.2612 11.4536Z" fill="white"/>
<path d="M25.0843 2.28135L29.7235 10.2269H20.445L25.0843 2.28135ZM25.0843 0.861084L19.1971 10.9221H30.9713L25.0843 0.861084Z" fill="white"/>
<path d="M0.85144 0.861084L5.78757 9.76008L11.1815 1.08454L0.85144 0.861084Z" fill="#4CAF4F"/>
<path d="M12.3792 1.64053L17.5569 10.4899H7.19153L12.3792 1.64053Z" fill="#4CAF4F"/>
<path d="M18.8902 12.422L24.0729 21.5147H13.461L18.7292 12.422H18.8902Z" fill="#4CAF4F"/>
<path d="M20.0122 11.8707L25.0842 20.8243L30.2266 11.8707H20.0122Z" fill="#4CAF4F"/>
<path d="M52.5136 2.2973V19.8216H49.3133L41.6893 8.79189H41.5609V19.8216H37.8558V2.2973H41.1074L48.6716 13.3184H48.8256V2.2973H52.5136Z" fill="white"/>
<path d="M61.496 20.0783C60.1441 20.0783 58.9804 19.8045 58.0049 19.2568C57.0351 18.7035 56.2878 17.922 55.763 16.9123C55.2382 15.8969 54.9758 14.6961 54.9758 13.3099C54.9758 11.9579 55.2382 10.7714 55.763 9.75025C56.2878 8.72914 57.0266 7.93336 57.9792 7.36291C58.9376 6.79246 60.0614 6.50723 61.3506 6.50723C62.2177 6.50723 63.0249 6.64699 63.7722 6.92651C64.5251 7.20033 65.1812 7.61391 65.7402 8.16725C66.305 8.72058 66.7442 9.41653 67.0579 10.2551C67.3717 11.088 67.5286 12.0634 67.5286 13.1815V14.1827H56.4304V11.9237H64.0973C64.0973 11.3989 63.9832 10.9339 63.755 10.5289C63.5269 10.1239 63.2103 9.80729 62.8052 9.57911C62.4059 9.34523 61.941 9.22829 61.4105 9.22829C60.8571 9.22829 60.3666 9.35664 59.9387 9.61334C59.5166 9.86434 59.1857 10.2038 58.9461 10.6316C58.7065 11.0537 58.5839 11.5244 58.5782 12.0435V14.1912C58.5782 14.8415 58.698 15.4034 58.9376 15.8769C59.1829 16.3504 59.528 16.7155 59.9729 16.9722C60.4179 17.2289 60.9456 17.3572 61.5559 17.3572C61.961 17.3572 62.3318 17.3002 62.6683 17.1861C63.0049 17.072 63.293 16.9009 63.5326 16.6727C63.7721 16.4445 63.9547 16.165 64.0802 15.8341L67.4516 16.0566C67.2804 16.8666 66.9296 17.574 66.3991 18.1787C65.8743 18.7776 65.1954 19.2454 64.3626 19.582C63.5354 19.9128 62.5799 20.0783 61.496 20.0783Z" fill="white"/>
<path d="M72.7183 6.67837L75.1313 11.2734L77.6042 6.67837H81.3435L77.5357 13.25L81.4462 19.8216H77.724L75.1313 15.2779L72.5813 19.8216H68.8164L72.7183 13.25L68.9533 6.67837H72.7183Z" fill="white"/>
<path d="M88.9761 20.0783C87.6298 20.0783 86.4718 19.793 85.5021 19.2226C84.538 18.6464 83.7964 17.8478 83.2773 16.8267C82.7639 15.8056 82.5072 14.6305 82.5072 13.3013C82.5072 11.955 82.7668 10.7742 83.2859 9.75881C83.8107 8.7377 84.5551 7.94192 85.5192 7.37147C86.4832 6.79531 87.6298 6.50723 88.959 6.50723C90.1056 6.50723 91.1096 6.71545 91.971 7.13188C92.8324 7.54831 93.514 8.13302 94.016 8.88601C94.518 9.63901 94.7947 10.5232 94.8461 11.5386H91.4062C91.3093 10.8826 91.0526 10.3549 90.6361 9.95561C90.2254 9.55059 89.6863 9.34808 89.0189 9.34808C88.4542 9.34808 87.9607 9.5021 87.5386 9.81015C87.1221 10.1125 86.797 10.5546 86.5631 11.1364C86.3292 11.7183 86.2123 12.4228 86.2123 13.25C86.2123 14.0885 86.3264 14.8016 86.5545 15.3892C86.7884 15.9767 87.1164 16.4245 87.5386 16.7326C87.9607 17.0406 88.4542 17.1946 89.0189 17.1946C89.4353 17.1946 89.809 17.1091 90.1398 16.9379C90.4764 16.7668 90.7531 16.5187 90.9698 16.1935C91.1923 15.8626 91.3378 15.4662 91.4062 15.0041H94.8461C94.789 16.0081 94.5152 16.8923 94.0246 17.6567C93.5397 18.4154 92.8694 19.0087 92.0138 19.4365C91.1581 19.8644 90.1455 20.0783 88.9761 20.0783Z" fill="white"/>
<path d="M103.17 20.0783C101.818 20.0783 100.654 19.8045 99.6785 19.2568C98.7087 18.7035 97.9614 17.922 97.4366 16.9123C96.9118 15.8969 96.6494 14.6961 96.6494 13.3099C96.6494 11.9579 96.9118 10.7714 97.4366 9.75025C97.9614 8.72914 98.7002 7.93336 99.6528 7.36291C100.611 6.79246 101.735 6.50723 103.024 6.50723C103.891 6.50723 104.698 6.64699 105.446 6.92651C106.199 7.20033 106.855 7.61391 107.414 8.16725C107.979 8.72058 108.418 9.41653 108.732 10.2551C109.045 11.088 109.202 12.0634 109.202 13.1815V14.1827H98.104V11.9237H105.771C105.771 11.3989 105.657 10.9339 105.429 10.5289C105.2 10.1239 104.884 9.80729 104.479 9.57911C104.08 9.34523 103.615 9.22829 103.084 9.22829C102.531 9.22829 102.04 9.35664 101.612 9.61334C101.19 9.86434 100.859 10.2038 100.62 10.6316C100.38 11.0537 100.257 11.5244 100.252 12.0435V14.1912C100.252 14.8415 100.372 15.4034 100.611 15.8769C100.856 16.3504 101.202 16.7155 101.647 16.9722C102.091 17.2289 102.619 17.3572 103.23 17.3572C103.635 17.3572 104.005 17.3002 104.342 17.1861C104.678 17.072 104.967 16.9009 105.206 16.6727C105.446 16.4445 105.628 16.165 105.754 15.8341L109.125 16.0566C108.954 16.8666 108.603 17.574 108.073 18.1787C107.548 18.7776 106.869 19.2454 106.036 19.582C105.209 19.9128 104.254 20.0783 103.17 20.0783Z" fill="white"/>
<path d="M115.226 12.2232V19.8216H111.581V6.67837H115.055V8.99725H115.209C115.5 8.23285 115.988 7.62817 116.672 7.18322C117.357 6.73256 118.187 6.50723 119.162 6.50723C120.075 6.50723 120.871 6.70689 121.55 7.10621C122.228 7.50552 122.756 8.07597 123.133 8.81756C123.509 9.55344 123.697 10.4319 123.697 11.453V19.8216H120.052V12.1034C120.058 11.299 119.853 10.6715 119.436 10.2209C119.02 9.76451 118.446 9.53633 117.716 9.53633C117.226 9.53633 116.792 9.64186 116.416 9.85293C116.045 10.064 115.754 10.372 115.543 10.7771C115.337 11.1764 115.232 11.6584 115.226 12.2232Z" fill="white"/>
<path d="M133.561 6.67837V9.41653H125.646V6.67837H133.561ZM127.443 3.52948H131.088V15.7828C131.088 16.1193 131.14 16.3817 131.242 16.57C131.345 16.7525 131.488 16.8809 131.67 16.955C131.858 17.0292 132.075 17.0663 132.32 17.0663C132.492 17.0663 132.663 17.052 132.834 17.0235C133.005 16.9893 133.136 16.9636 133.227 16.9465L133.801 19.659C133.618 19.716 133.361 19.7816 133.031 19.8558C132.7 19.9357 132.298 19.9841 131.824 20.0013C130.946 20.0355 130.176 19.9185 129.514 19.6504C128.858 19.3823 128.347 18.9659 127.982 18.4011C127.617 17.8364 127.437 17.1233 127.443 16.2619V3.52948Z" fill="white"/>
</svg>
