<svg width="14" height="13" viewBox="0 0 14 13" fill="none" xmlns="http://www.w3.org/2000/svg">
<g clip-path="url(#clip0_507_231)">
<path fill-rule="evenodd" clip-rule="evenodd" d="M12.4608 0.898465C12.6026 1.04027 12.6506 1.25078 12.5844 1.44007L8.93003 11.8811C8.85932 12.0831 8.67244 12.2215 8.45857 12.2303C8.24469 12.239 8.04716 12.1163 7.96023 11.9207L5.95357 7.40569L1.43858 5.39903C1.24298 5.3121 1.12027 5.11457 1.12899 4.9007C1.13772 4.68682 1.27612 4.49994 1.47815 4.42923L11.9192 0.774868C12.1085 0.708617 12.319 0.756655 12.4608 0.898465ZM6.97176 7.1258L8.37955 10.2933L10.8432 3.25438L6.97176 7.1258ZM10.1049 2.51608L3.06593 4.97972L6.23346 6.38751L10.1049 2.51608Z" fill="white"/>
</g>
<defs>
<clipPath id="clip0_507_231">
<rect width="12.5293" height="12.5293" fill="white" transform="translate(0.606506 0.223511)"/>
</clipPath>
</defs>
</svg>
