<svg width="23" height="24" viewBox="0 0 23 24" fill="none" xmlns="http://www.w3.org/2000/svg">
<path opacity="0.1" fill-rule="evenodd" clip-rule="evenodd" d="M0.674133 11.9059C0.674133 5.75505 5.66039 0.768799 11.8112 0.768799C17.9621 0.768799 22.9484 5.75505 22.9484 11.9059C22.9484 18.0568 17.9621 23.043 11.8112 23.043C5.66039 23.043 0.674133 18.0568 0.674133 11.9059Z" fill="white"/>
<path fill-rule="evenodd" clip-rule="evenodd" d="M11.4777 9.82118L11.501 10.2066L11.1115 10.1594C9.69373 9.97848 8.45509 9.36503 7.40341 8.33476L6.88926 7.82355L6.75683 8.20106C6.47638 9.04258 6.65556 9.93129 7.23982 10.529C7.55143 10.8593 7.48131 10.9065 6.94379 10.7099C6.75683 10.647 6.59323 10.5998 6.57765 10.6234C6.52312 10.6784 6.71009 11.3941 6.8581 11.6772C7.06064 12.0705 7.47352 12.4558 7.92535 12.6839L8.30707 12.8648L7.85524 12.8727C7.41899 12.8727 7.40341 12.8805 7.45015 13.0457C7.60596 13.5569 8.22138 14.0996 8.90692 14.3355L9.38991 14.5007L8.96924 14.7523C8.34602 15.1141 7.61375 15.3186 6.88147 15.3343C6.53091 15.3422 6.24268 15.3736 6.24268 15.3972C6.24268 15.4759 7.19308 15.9163 7.74618 16.0893C9.40549 16.6005 11.3764 16.3803 12.8565 15.5073C13.9082 14.886 14.9599 13.6513 15.4507 12.4558C15.7155 11.8188 15.9804 10.6548 15.9804 10.0964C15.9804 9.73467 16.0038 9.68748 16.44 9.25493C16.6971 9.00326 16.9386 8.72799 16.9853 8.64935C17.0632 8.49992 17.0554 8.49992 16.6581 8.63362C15.996 8.86956 15.9025 8.8381 16.2297 8.48419C16.4712 8.23252 16.7594 7.77637 16.7594 7.64267C16.7594 7.61907 16.6426 7.6584 16.5101 7.72918C16.3699 7.80782 16.0583 7.92579 15.8246 7.99658L15.4039 8.13028L15.0222 7.87074C14.8119 7.72918 14.5158 7.57188 14.36 7.5247C13.9627 7.41459 13.3551 7.43032 12.9968 7.55615C12.023 7.91007 11.4076 8.82237 11.4777 9.82118Z" fill="white"/>
</svg>
