<svg width="23" height="24" viewBox="0 0 23 24" fill="none" xmlns="http://www.w3.org/2000/svg">
<path opacity="0.1" fill-rule="evenodd" clip-rule="evenodd" d="M0.0854492 11.9059C0.0854492 5.75505 5.0717 0.768799 11.2226 0.768799C17.3734 0.768799 22.3597 5.75505 22.3597 11.9059C22.3597 18.0568 17.3734 23.043 11.2226 23.043C5.0717 23.043 0.0854492 18.0568 0.0854492 11.9059Z" fill="white"/>
<path fill-rule="evenodd" clip-rule="evenodd" d="M15.8638 8.07723C16.3749 8.21749 16.7775 8.63078 16.9141 9.15562C17.1624 10.1068 17.1624 12.0915 17.1624 12.0915C17.1624 12.0915 17.1624 14.0762 16.9141 15.0275C16.7775 15.5523 16.3749 15.9656 15.8638 16.1059C14.9374 16.3608 11.2226 16.3608 11.2226 16.3608C11.2226 16.3608 7.5077 16.3608 6.5813 16.1059C6.07014 15.9656 5.66758 15.5523 5.53096 15.0275C5.28278 14.0762 5.28278 12.0915 5.28278 12.0915C5.28278 12.0915 5.28278 10.1068 5.53096 9.15562C5.66758 8.63078 6.07014 8.21749 6.5813 8.07723C7.5077 7.82231 11.2226 7.82231 11.2226 7.82231C11.2226 7.82231 14.9374 7.82231 15.8638 8.07723ZM10.1089 10.4209V14.1333L13.0788 12.2772L10.1089 10.4209Z" fill="white"/>
</svg>
